<?xml version="1.0" standalone="no"?><!DOCTYPE svg PUBLIC "-//W3C//DTD SVG 1.1//EN" "http://www.w3.org/Graphics/SVG/1.1/DTD/svg11.dtd"><svg t="1727576725146" class="icon" viewBox="0 0 1029 1024" version="1.1" xmlns="http://www.w3.org/2000/svg" p-id="1335" width="128.625" height="128" xmlns:xlink="http://www.w3.org/1999/xlink"><path d="M307.2 947.2v-51.2h460.8v51.2H307.2" fill="#0069FF" p-id="1336"></path><path d="M512 768h51.2v153.6h-51.2V768M972.8 158.72v558.08H51.2V158.72h921.6m0-51.2H51.2c-30.72 0-51.2 20.48-51.2 51.2v558.08c0 30.72 20.48 51.2 51.2 51.2h921.6c30.72 0 51.2-20.48 51.2-51.2V158.72c0-25.6-20.48-51.2-51.2-51.2z" fill="#0069FF" p-id="1337"></path><path d="M846.7456 578.4576L828.416 596.7872l91.5456 91.5456 18.3296-18.3296-91.5456-91.5456z" fill="#0069FF" p-id="1338"></path><path d="M809.7792 579.1744h19.1488v76.5952h-19.1488v-76.5952m0 0v-19.1488h95.6416v19.1488h-76.5952" fill="#0069FF" p-id="1339"></path><path d="M164.864 462.336c3.3792 2.1504 7.4752 4.9152 13.1072 7.9872 13.1072 7.7824 31.0272 8.8064 52.9408 8.8064 20.8896 0 54.5792-1.7408 75.4688-4.7104-2.6624 6.4512-6.4512 17.7152-6.8608 23.9616-15.2576 1.1264-47.9232 2.1504-69.4272 2.1504-24.9856 0-41.472-2.3552-55.3984-9.9328-8.0896-4.9152-14.7456-10.752-19.1488-10.752-6.2464 0-15.872 12.0832-24.576 23.7568l-15.6672-21.0944c8.4992-8.192 17.7152-15.0528 26.0096-19.0464V408.576h-24.576v-21.504h48.128v75.264z m-28.8768-133.9392c10.9568 7.3728 27.5456 18.5344 36.0448 25.2928l-16.1792 17.3056c-7.68-7.168-24.1664-19.0464-35.328-27.4432l15.4624-15.1552zM301.056 374.784v20.48h-35.84v44.032c0 5.632 0.6144 6.144 3.9936 6.144h8.8064c3.584 0 4.4032-2.6624 5.0176-21.6064 4.1984 3.4816 13.7216 7.168 19.7632 8.704-2.048 26.624-7.68 33.5872-22.6304 33.3824h-13.1072c-19.7632 0.4096-24.1664-5.9392-24.1664-26.4192V395.264h-15.1552c-2.4576 34.816-10.1376 58.9824-46.1824 73.3184-2.6624-5.7344-9.1136-14.336-14.336-18.5344 29.696-10.752 34.7136-28.3648 36.5568-54.784h-29.696v-20.48h126.976z m-13.312-43.008v20.48h-101.376v-20.48h101.376zM397.1072 339.8656c-7.2704 2.7648-15.6672 5.2224-24.3712 7.168v27.648h21.504v21.504h-21.504v5.8368c5.2224 4.3008 21.4016 21.2992 25.088 25.6l-13.4144 18.5344c-2.3552-5.12-6.9632-12.6976-11.6736-19.8656V502.784h-22.528v-70.4512c-6.5536 14.9504-14.4384 28.672-22.528 38.4-2.2528-6.5536-7.68-16.2816-11.5712-22.1184 11.5712-12.5952 23.3472-33.4848 30.72-52.3264H320.512v-21.504h28.672v-22.6304c-8.4992 1.3312-16.896 2.7648-24.7808 3.6864-1.2288-5.2224-4.3008-13.0048-6.8608-17.92 22.528-3.4816 47.5136-9.3184 63.1808-15.9744l16.384 17.92zM438.272 442.368v-16.384h-39.936v-20.48h105.472v20.48h-40.96v16.384h35.84v19.456h-35.84v16.384h45.056v20.48H391.168v-20.48h48.128l-1.024-16.384h-34.816v-19.456h34.816z m60.416-114.688v66.56h-93.184v-66.56h93.184z m-70.656 46.08h47.104v-26.624h-47.104v26.624zM565.248 320.512v46.08h19.456v21.504h-19.456v115.712h-23.552V388.096h-19.456v-21.504h19.456v-46.08h23.552z m44.1344 76.4928c-4.3008 20.2752-11.9808 40.5504-21.0944 53.3504-4.3008-3.072-13.2096-8.8064-18.432-11.4688 8.704-11.0592 15.0528-28.672 18.0224-45.9776l21.504 4.096zM644.096 321.536v34.816h41.984v10.4448l-0.6144 28.9792 14.7456-2.8672c5.8368 18.2272 12.0832 42.496 14.5408 56.7296l-20.992 5.2224c-1.4336-10.8544-4.8128-27.3408-8.9088-42.9056-1.4336 49.8688-3.584 70.3488-9.1136 77.5168-4.8128 6.9632-9.728 8.9088-16.7936 10.3424-6.656 1.1264-17.1008 0.9216-27.4432 0.8192-0.4096-6.5536-3.2768-16.0768-7.2704-22.528 9.9328 0.9216 18.944 0.9216 23.4496 0.9216 3.2768 0 5.2224-0.8192 7.2704-3.2768 4.608-5.632 6.4512-31.0272 7.68-96.6656H644.096c-1.6384 40.2432-10.24 88.7808-54.0672 124.1088-3.9936-5.0176-12.6976-12.8-18.3296-16.0768 39.3216-30.9248 47.8208-72.8064 49.2544-107.9296H590.848v-22.528h29.696v-34.816h23.552zM736.256 459.3664V328.704h71.68v115.8144l8.192-1.7408 1.9456 18.432c12.9024-20.3776 17.408-45.9776 19.1488-76.0832H813.056v-22.528h26.624l0.4096-41.984h23.7568c0 14.4384 0 28.4672-0.4096 41.984H907.264v10.6496c-1.8432 81.408-3.6864 110.6944-10.3424 119.9104-4.7104 6.7584-9.728 8.9088-16.896 10.0352-6.656 1.2288-17.3056 1.024-27.648 0.6144-0.4096-6.3488-3.2768-16.384-7.2704-22.528 9.9328 0.6144 19.0464 0.8192 23.3472 0.8192 3.4816 0 5.5296-0.6144 7.4752-3.3792 4.5056-5.5296 6.2464-30.208 7.68-93.696h-21.7088c-3.072 52.1216-14.2336 94.1056-53.6576 120.5248-3.4816-5.7344-11.1616-13.824-17.1008-18.0224 10.1376-6.5536 18.1248-14.0288 24.3712-22.528l-89.6 21.0944-4.3008-24.2688 14.6432-2.4576z m49.152-90.7264v-19.456h-26.624v19.456h26.624z m-26.624 40.96h26.624v-19.456h-26.624v19.456z m26.624 39.0144V430.08h-26.624v23.7568l26.624-5.2224z" fill="#E7273E" p-id="1340"></path></svg>